<svg width="1338" height="327" viewBox="0 0 1338 327" fill="none" xmlns="http://www.w3.org/2000/svg">
<path d="M217.594 4.86969L217.594 81.8547L294.534 81.8547L294.534 4.86972L217.594 4.86969Z" fill="#D328A7"/>
<path d="M111.775 81.944L111.775 158.929L217.782 158.929L217.782 81.944L111.775 81.944Z" fill="#D328A7"/>
<path d="M38.4909 5.00909L38.4908 81.9941L115.431 81.9941L115.431 5.00911L38.4909 5.00909Z" fill="#D328A7"/>
<path d="M2.66594e-05 81.8749L0 158.86L38.4702 158.86L38.4703 81.8749L2.66594e-05 81.8749Z" fill="#D328A7"/>
<path d="M493.484 80.4066C493.484 129.449 467.837 160.528 428.797 160.528C406.569 160.528 388.902 149.693 380.068 132.3H379.498V209H347.582V2.85132H378.358V29.6536H378.928C388.047 11.6904 406 0.57032 428.227 0.57032C467.552 0.28519 493.484 31.3643 493.484 80.4066ZM460.998 80.4066C460.998 47.9018 445.325 27.0873 419.963 27.0873C395.741 27.0873 379.213 48.187 379.213 80.4066C379.213 112.626 395.456 133.726 419.963 133.726C445.04 133.726 460.998 112.911 460.998 80.4066Z" fill="white"/>
<path d="M517.991 2.85129H548.197V29.0833H549.052C554.181 10.835 568.144 0.285141 586.382 0.285141C590.942 0.285141 594.931 1.14051 597.211 1.42564V31.0792C594.646 29.9387 589.232 29.3683 582.963 29.3683C562.445 29.3683 549.907 43.0545 549.907 65.0095V157.677H517.991V2.85129Z" fill="white"/>
<path d="M603.48 80.4066C603.48 30.5089 632.831 0 677.001 0C721.171 0 750.522 30.5089 750.522 80.4066C750.522 130.304 721.455 160.813 677.001 160.813C632.547 160.813 603.48 130.304 603.48 80.4066ZM718.036 80.4066C718.036 46.191 701.793 26.232 677.001 26.232C652.209 26.232 635.966 45.9059 635.966 80.4066C635.966 114.907 652.209 134.581 677.001 134.581C701.793 134.581 718.036 114.907 718.036 80.4066Z" fill="white"/>
<path d="M920.931 80.4066C920.931 129.449 895.284 160.528 856.244 160.528C834.016 160.528 816.349 149.693 807.515 132.3H806.66V209H774.744V2.85132H805.52V29.6536H806.09C815.209 11.6904 833.162 0.57032 855.389 0.57032C894.999 0.28519 920.931 31.3643 920.931 80.4066ZM888.16 80.4066C888.16 47.9018 872.487 27.0873 847.125 27.0873C822.903 27.0873 806.375 48.187 806.375 80.4066C806.375 112.626 822.618 133.726 847.125 133.726C872.487 133.726 888.16 112.911 888.16 80.4066Z" fill="white"/>
<path d="M962.25 161.954V8.83894H1057.71V29.3682H985.903V77.8403H1051.73V97.7993H985.903V161.954H962.25Z" fill="#78F9FF"/>
<path d="M1116.42 161.954V29.3682H1069.68V8.83894H1187.09V29.3682H1140.35V161.954H1116.42Z" fill="#78F9FF"/>
<path d="M1247.5 85.2537V84.3984L1197.35 8.83894H1225.56L1263.17 68.146H1264.03L1302.21 8.83894H1329L1277.14 85.2537V85.824L1327.86 161.668H1300.22L1262.32 103.217H1261.46L1222.99 161.954H1196.78L1247.5 85.2537Z" fill="#78F9FF"/>
<path d="M18.216 310V266.836H2.97V261.16H39.93V266.836H24.684V310H18.216ZM56.7961 274.36C58.9961 274.36 60.8441 274.712 62.3401 275.416C63.8361 276.12 65.0461 276.956 65.9701 277.924C66.8941 278.848 67.5981 279.728 68.0821 280.564H68.4781V275.02H74.7481V310H68.4781V304.456H68.0821C67.5981 305.292 66.8941 306.194 65.9701 307.162C65.0461 308.13 63.8361 308.966 62.3401 309.67C60.8441 310.33 58.9961 310.66 56.7961 310.66C54.1561 310.66 51.8461 310.154 49.8661 309.142C47.8861 308.086 46.2361 306.7 44.9161 304.984C43.5961 303.224 42.6061 301.266 41.9461 299.11C41.2861 296.954 40.9561 294.754 40.9561 292.51C40.9561 290.266 41.2861 288.066 41.9461 285.91C42.6061 283.754 43.5961 281.818 44.9161 280.102C46.2361 278.342 47.8861 276.956 49.8661 275.944C51.8461 274.888 54.1561 274.36 56.7961 274.36ZM57.8521 279.706C55.5201 279.706 53.5621 280.344 51.9781 281.62C50.3941 282.852 49.2061 284.436 48.4141 286.372C47.6661 288.308 47.2921 290.354 47.2921 292.51C47.2921 294.622 47.6661 296.668 48.4141 298.648C49.2061 300.584 50.3941 302.19 51.9781 303.466C53.5621 304.698 55.5201 305.314 57.8521 305.314C60.1841 305.314 62.1201 304.698 63.6601 303.466C65.2441 302.19 66.4101 300.584 67.1581 298.648C67.9501 296.668 68.3461 294.622 68.3461 292.51C68.3461 290.354 67.9501 288.308 67.1581 286.372C66.4101 284.436 65.2441 282.852 63.6601 281.62C62.1201 280.344 60.1841 279.706 57.8521 279.706ZM83.9618 310V275.02H90.2318V280.102H90.6278C90.9358 279.574 91.4418 278.848 92.1458 277.924C92.8938 277 93.9498 276.186 95.3138 275.482C96.6778 274.734 98.3938 274.36 100.462 274.36C103.014 274.36 105.192 274.954 106.996 276.142C108.8 277.286 110.164 278.848 111.088 280.828C112.056 282.808 112.54 285.03 112.54 287.494V310H106.27V287.89C106.27 285.558 105.61 283.622 104.29 282.082C103.014 280.542 101.144 279.772 98.6798 279.772C96.6998 279.772 95.0938 280.278 93.8618 281.29C92.6298 282.258 91.7058 283.556 91.0898 285.184C90.5178 286.768 90.2318 288.462 90.2318 290.266V310H83.9618ZM138.626 323.86C135.722 323.86 133.302 323.464 131.366 322.672C129.43 321.924 127.868 320.956 126.68 319.768C125.536 318.624 124.678 317.48 124.106 316.336C123.534 315.192 123.16 314.224 122.984 313.432C122.808 312.684 122.72 312.31 122.72 312.31H128.99C128.99 312.31 129.1 312.618 129.32 313.234C129.54 313.85 129.958 314.554 130.574 315.346C131.234 316.138 132.202 316.842 133.478 317.458C134.754 318.074 136.47 318.382 138.626 318.382C141.178 318.382 143.18 317.876 144.632 316.864C146.084 315.896 147.118 314.62 147.734 313.036C148.394 311.452 148.724 309.78 148.724 308.02V303.994H148.394C147.954 304.742 147.25 305.6 146.282 306.568C145.358 307.492 144.126 308.306 142.586 309.01C141.046 309.67 139.154 310 136.91 310C134.27 310 131.96 309.494 129.98 308.482C128 307.47 126.35 306.106 125.03 304.39C123.754 302.674 122.786 300.76 122.126 298.648C121.466 296.536 121.136 294.38 121.136 292.18C121.136 289.98 121.466 287.824 122.126 285.712C122.786 283.6 123.754 281.686 125.03 279.97C126.35 278.254 128 276.89 129.98 275.878C131.96 274.866 134.27 274.36 136.91 274.36C139.154 274.36 141.046 274.712 142.586 275.416C144.126 276.076 145.358 276.868 146.282 277.792C147.25 278.716 147.954 279.574 148.394 280.366H148.724V275.02H154.994V307.954C154.994 312.838 153.564 316.71 150.704 319.57C147.888 322.43 143.862 323.86 138.626 323.86ZM138.098 304.654C140.43 304.654 142.366 304.06 143.906 302.872C145.49 301.64 146.656 300.078 147.404 298.186C148.196 296.294 148.592 294.292 148.592 292.18C148.592 290.068 148.196 288.066 147.404 286.174C146.656 284.238 145.49 282.676 143.906 281.488C142.366 280.3 140.43 279.706 138.098 279.706C135.766 279.706 133.808 280.3 132.224 281.488C130.64 282.676 129.452 284.238 128.66 286.174C127.912 288.066 127.538 290.068 127.538 292.18C127.538 294.292 127.912 296.294 128.66 298.186C129.452 300.078 130.64 301.64 132.224 302.872C133.808 304.06 135.766 304.654 138.098 304.654ZM168.298 268.354C167.11 268.354 166.12 267.958 165.328 267.166C164.58 266.374 164.206 265.428 164.206 264.328C164.206 263.184 164.58 262.216 165.328 261.424C166.12 260.632 167.11 260.236 168.298 260.236C169.442 260.236 170.41 260.632 171.202 261.424C171.994 262.216 172.39 263.184 172.39 264.328C172.39 265.428 171.994 266.374 171.202 267.166C170.41 267.958 169.442 268.354 168.298 268.354ZM165.196 310V275.02H171.466V310H165.196ZM200.22 310.66C198.02 310.66 196.172 310.308 194.676 309.604C193.18 308.9 191.97 308.064 191.046 307.096C190.166 306.128 189.462 305.248 188.934 304.456H188.538V310H182.268V259.84H188.538V280.564H188.934C189.462 279.728 190.166 278.826 191.046 277.858C191.97 276.89 193.18 276.076 194.676 275.416C196.172 274.712 198.02 274.36 200.22 274.36C202.86 274.36 205.17 274.888 207.15 275.944C209.13 276.956 210.78 278.342 212.1 280.102C213.42 281.818 214.41 283.754 215.07 285.91C215.73 288.066 216.06 290.266 216.06 292.51C216.06 294.754 215.73 296.954 215.07 299.11C214.41 301.266 213.42 303.224 212.1 304.984C210.78 306.7 209.13 308.086 207.15 309.142C205.17 310.154 202.86 310.66 200.22 310.66ZM199.164 305.314C201.54 305.314 203.498 304.698 205.038 303.466C206.622 302.19 207.788 300.584 208.536 298.648C209.328 296.668 209.724 294.622 209.724 292.51C209.724 290.354 209.328 288.308 208.536 286.372C207.788 284.436 206.622 282.852 205.038 281.62C203.498 280.344 201.54 279.706 199.164 279.706C196.832 279.706 194.874 280.344 193.29 281.62C191.75 282.852 190.584 284.436 189.792 286.372C189.044 288.308 188.67 290.354 188.67 292.51C188.67 294.622 189.044 296.668 189.792 298.648C190.584 300.584 191.75 302.19 193.29 303.466C194.874 304.698 196.832 305.314 199.164 305.314ZM225.323 310L225.389 259.84H231.593V310H225.323ZM257.391 310.66C254.531 310.66 252.045 310.154 249.933 309.142C247.865 308.086 246.149 306.678 244.785 304.918C243.465 303.158 242.475 301.222 241.815 299.11C241.155 296.954 240.825 294.754 240.825 292.51C240.825 290.31 241.133 288.132 241.749 285.976C242.409 283.82 243.399 281.862 244.719 280.102C246.083 278.342 247.777 276.956 249.801 275.944C251.869 274.888 254.311 274.36 257.127 274.36C260.119 274.36 262.759 275.042 265.047 276.406C267.335 277.77 269.139 279.794 270.459 282.478C271.779 285.162 272.439 288.528 272.439 292.576V294.424H247.161C247.293 296.404 247.755 298.23 248.547 299.902C249.383 301.53 250.549 302.85 252.045 303.862C253.541 304.83 255.323 305.314 257.391 305.314C259.195 305.314 260.647 305.028 261.747 304.456C262.891 303.84 263.793 303.136 264.453 302.344C265.113 301.552 265.553 300.87 265.773 300.298C266.037 299.682 266.169 299.374 266.169 299.374H272.043C272.043 299.374 271.933 299.77 271.713 300.562C271.493 301.31 271.097 302.234 270.525 303.334C269.953 304.434 269.117 305.556 268.017 306.7C266.917 307.8 265.509 308.746 263.793 309.538C262.077 310.286 259.943 310.66 257.391 310.66ZM247.227 289.54H266.301C266.213 287.252 265.729 285.404 264.849 283.996C263.969 282.544 262.847 281.466 261.483 280.762C260.119 280.058 258.667 279.706 257.127 279.706C254.355 279.706 252.089 280.608 250.329 282.412C248.569 284.172 247.535 286.548 247.227 289.54Z" fill="white"/>
<path d="M435.216 310V266.836H419.97V261.16H456.93V266.836H441.684V310H435.216ZM459.905 310V275.02H466.175V279.376H466.439C467.187 278.056 468.287 276.89 469.739 275.878C471.191 274.866 473.237 274.36 475.877 274.36C476.625 274.36 477.307 274.404 477.923 274.492C478.539 274.536 478.847 274.558 478.847 274.558V280.564C478.847 280.564 478.495 280.542 477.791 280.498C477.131 280.41 476.427 280.366 475.679 280.366C472.643 280.366 470.289 281.246 468.617 283.006C466.989 284.722 466.175 287.538 466.175 291.454V310H459.905ZM498.288 274.36C500.488 274.36 502.336 274.712 503.832 275.416C505.328 276.12 506.538 276.956 507.462 277.924C508.386 278.848 509.09 279.728 509.574 280.564H509.97V275.02H516.24V310H509.97V304.456H509.574C509.09 305.292 508.386 306.194 507.462 307.162C506.538 308.13 505.328 308.966 503.832 309.67C502.336 310.33 500.488 310.66 498.288 310.66C495.648 310.66 493.338 310.154 491.358 309.142C489.378 308.086 487.728 306.7 486.408 304.984C485.088 303.224 484.098 301.266 483.438 299.11C482.778 296.954 482.448 294.754 482.448 292.51C482.448 290.266 482.778 288.066 483.438 285.91C484.098 283.754 485.088 281.818 486.408 280.102C487.728 278.342 489.378 276.956 491.358 275.944C493.338 274.888 495.648 274.36 498.288 274.36ZM499.344 279.706C497.012 279.706 495.054 280.344 493.47 281.62C491.886 282.852 490.698 284.436 489.906 286.372C489.158 288.308 488.784 290.354 488.784 292.51C488.784 294.622 489.158 296.668 489.906 298.648C490.698 300.584 491.886 302.19 493.47 303.466C495.054 304.698 497.012 305.314 499.344 305.314C501.676 305.314 503.612 304.698 505.152 303.466C506.736 302.19 507.902 300.584 508.65 298.648C509.442 296.668 509.838 294.622 509.838 292.51C509.838 290.354 509.442 288.308 508.65 286.372C507.902 284.436 506.736 282.852 505.152 281.62C503.612 280.344 501.676 279.706 499.344 279.706ZM525.454 310V275.02H531.724V280.102H532.12C532.428 279.574 532.934 278.848 533.638 277.924C534.386 277 535.442 276.186 536.806 275.482C538.17 274.734 539.886 274.36 541.954 274.36C544.506 274.36 546.684 274.954 548.488 276.142C550.292 277.286 551.656 278.848 552.58 280.828C553.548 282.808 554.032 285.03 554.032 287.494V310H547.762V287.89C547.762 285.558 547.102 283.622 545.782 282.082C544.506 280.542 542.636 279.772 540.172 279.772C538.192 279.772 536.586 280.278 535.354 281.29C534.122 282.258 533.198 283.556 532.582 285.184C532.01 286.768 531.724 288.462 531.724 290.266V310H525.454ZM576.092 310.66C573.408 310.66 571.186 310.286 569.426 309.538C567.71 308.79 566.346 307.866 565.334 306.766C564.322 305.622 563.574 304.5 563.09 303.4C562.606 302.256 562.298 301.31 562.166 300.562C562.034 299.814 561.968 299.44 561.968 299.44H568.304C568.304 299.44 568.37 299.748 568.502 300.364C568.678 300.936 569.008 301.618 569.492 302.41C570.02 303.158 570.812 303.84 571.868 304.456C572.968 305.028 574.42 305.314 576.224 305.314C578.292 305.314 579.898 304.83 581.042 303.862C582.186 302.85 582.758 301.618 582.758 300.166C582.758 298.89 582.296 297.878 581.372 297.13C580.492 296.382 579.216 295.81 577.544 295.414L572.792 294.292C571.032 293.852 569.382 293.258 567.842 292.51C566.302 291.762 565.048 290.75 564.08 289.474C563.156 288.154 562.694 286.526 562.694 284.59C562.694 281.598 563.816 279.156 566.06 277.264C568.304 275.328 571.23 274.36 574.838 274.36C577.258 274.36 579.26 274.712 580.844 275.416C582.428 276.076 583.682 276.912 584.606 277.924C585.574 278.936 586.278 279.948 586.718 280.96C587.202 281.972 587.51 282.83 587.642 283.534C587.774 284.194 587.84 284.524 587.84 284.524H581.768C581.768 284.524 581.702 284.282 581.57 283.798C581.438 283.27 581.13 282.698 580.646 282.082C580.206 281.422 579.524 280.85 578.6 280.366C577.676 279.838 576.444 279.574 574.904 279.574C572.792 279.574 571.252 280.058 570.284 281.026C569.316 281.994 568.832 283.05 568.832 284.194C568.832 285.294 569.272 286.196 570.152 286.9C571.076 287.56 572.264 288.066 573.716 288.418L578.534 289.54C581.526 290.244 583.99 291.41 585.926 293.038C587.906 294.622 588.896 296.91 588.896 299.902C588.896 301.838 588.39 303.642 587.378 305.314C586.366 306.942 584.914 308.24 583.022 309.208C581.13 310.176 578.82 310.66 576.092 310.66ZM597.464 322.936V275.02H603.734V280.564H604.13C604.658 279.728 605.362 278.826 606.242 277.858C607.166 276.89 608.376 276.076 609.872 275.416C611.368 274.712 613.216 274.36 615.416 274.36C618.056 274.36 620.366 274.888 622.346 275.944C624.326 276.956 625.976 278.342 627.296 280.102C628.616 281.818 629.606 283.754 630.266 285.91C630.926 288.066 631.256 290.266 631.256 292.51C631.256 294.754 630.926 296.954 630.266 299.11C629.606 301.266 628.616 303.224 627.296 304.984C625.976 306.7 624.326 308.086 622.346 309.142C620.366 310.154 618.056 310.66 615.416 310.66C613.216 310.66 611.368 310.308 609.872 309.604C608.376 308.9 607.166 308.064 606.242 307.096C605.362 306.128 604.658 305.248 604.13 304.456H603.734V322.936H597.464ZM603.866 292.51C603.866 294.622 604.24 296.668 604.988 298.648C605.78 300.584 606.946 302.19 608.486 303.466C610.07 304.698 612.028 305.314 614.36 305.314C616.736 305.314 618.694 304.698 620.234 303.466C621.818 302.19 622.984 300.584 623.732 298.648C624.524 296.668 624.92 294.622 624.92 292.51C624.92 290.354 624.524 288.308 623.732 286.372C622.984 284.436 621.818 282.852 620.234 281.62C618.694 280.344 616.736 279.706 614.36 279.706C612.028 279.706 610.07 280.344 608.486 281.62C606.946 282.852 605.78 284.436 604.988 286.372C604.24 288.308 603.866 290.354 603.866 292.51ZM654.716 274.36C656.916 274.36 658.764 274.712 660.26 275.416C661.756 276.12 662.966 276.956 663.89 277.924C664.814 278.848 665.518 279.728 666.002 280.564H666.398V275.02H672.668V310H666.398V304.456H666.002C665.518 305.292 664.814 306.194 663.89 307.162C662.966 308.13 661.756 308.966 660.26 309.67C658.764 310.33 656.916 310.66 654.716 310.66C652.076 310.66 649.766 310.154 647.786 309.142C645.806 308.086 644.156 306.7 642.836 304.984C641.516 303.224 640.526 301.266 639.866 299.11C639.206 296.954 638.876 294.754 638.876 292.51C638.876 290.266 639.206 288.066 639.866 285.91C640.526 283.754 641.516 281.818 642.836 280.102C644.156 278.342 645.806 276.956 647.786 275.944C649.766 274.888 652.076 274.36 654.716 274.36ZM655.772 279.706C653.44 279.706 651.482 280.344 649.898 281.62C648.314 282.852 647.126 284.436 646.334 286.372C645.586 288.308 645.212 290.354 645.212 292.51C645.212 294.622 645.586 296.668 646.334 298.648C647.126 300.584 648.314 302.19 649.898 303.466C651.482 304.698 653.44 305.314 655.772 305.314C658.104 305.314 660.04 304.698 661.58 303.466C663.164 302.19 664.33 300.584 665.078 298.648C665.87 296.668 666.266 294.622 666.266 292.51C666.266 290.354 665.87 288.308 665.078 286.372C664.33 284.436 663.164 282.852 661.58 281.62C660.04 280.344 658.104 279.706 655.772 279.706ZM681.882 310V275.02H688.152V279.376H688.416C689.164 278.056 690.264 276.89 691.716 275.878C693.168 274.866 695.214 274.36 697.854 274.36C698.602 274.36 699.284 274.404 699.9 274.492C700.516 274.536 700.824 274.558 700.824 274.558V280.564C700.824 280.564 700.472 280.542 699.768 280.498C699.108 280.41 698.404 280.366 697.656 280.366C694.62 280.366 692.266 281.246 690.594 283.006C688.966 284.722 688.152 287.538 688.152 291.454V310H681.882ZM720.991 310.66C718.131 310.66 715.645 310.154 713.533 309.142C711.465 308.086 709.749 306.678 708.385 304.918C707.065 303.158 706.075 301.222 705.415 299.11C704.755 296.954 704.425 294.754 704.425 292.51C704.425 290.31 704.733 288.132 705.349 285.976C706.009 283.82 706.999 281.862 708.319 280.102C709.683 278.342 711.377 276.956 713.401 275.944C715.469 274.888 717.911 274.36 720.727 274.36C723.719 274.36 726.359 275.042 728.647 276.406C730.935 277.77 732.739 279.794 734.059 282.478C735.379 285.162 736.039 288.528 736.039 292.576V294.424H710.761C710.893 296.404 711.355 298.23 712.147 299.902C712.983 301.53 714.149 302.85 715.645 303.862C717.141 304.83 718.923 305.314 720.991 305.314C722.795 305.314 724.247 305.028 725.347 304.456C726.491 303.84 727.393 303.136 728.053 302.344C728.713 301.552 729.153 300.87 729.373 300.298C729.637 299.682 729.769 299.374 729.769 299.374H735.643C735.643 299.374 735.533 299.77 735.313 300.562C735.093 301.31 734.697 302.234 734.125 303.334C733.553 304.434 732.717 305.556 731.617 306.7C730.517 307.8 729.109 308.746 727.393 309.538C725.677 310.286 723.543 310.66 720.991 310.66ZM710.827 289.54H729.901C729.813 287.252 729.329 285.404 728.449 283.996C727.569 282.544 726.447 281.466 725.083 280.762C723.719 280.058 722.267 279.706 720.727 279.706C717.955 279.706 715.689 280.608 713.929 282.412C712.169 284.172 711.135 286.548 710.827 289.54ZM744.595 310V275.02H750.865V280.102H751.261C751.569 279.574 752.075 278.848 752.779 277.924C753.527 277 754.583 276.186 755.947 275.482C757.311 274.734 759.027 274.36 761.095 274.36C763.647 274.36 765.825 274.954 767.629 276.142C769.433 277.286 770.797 278.848 771.721 280.828C772.689 282.808 773.173 285.03 773.173 287.494V310H766.903V287.89C766.903 285.558 766.243 283.622 764.923 282.082C763.647 280.542 761.777 279.772 759.313 279.772C757.333 279.772 755.727 280.278 754.495 281.29C753.263 282.258 752.339 283.556 751.723 285.184C751.151 286.768 750.865 288.462 750.865 290.266V310H744.595ZM795.99 310.66C792.382 310.66 789.654 309.736 787.806 307.888C786.002 306.04 785.1 303.444 785.1 300.1V280.168H778.83V275.02H785.1V266.242H791.37V275.02H799.884V280.168H791.37V300.1C791.37 301.86 791.854 303.158 792.822 303.994C793.79 304.786 795.198 305.182 797.046 305.182C798.014 305.182 798.938 305.116 799.818 304.984C800.698 304.852 801.138 304.786 801.138 304.786V310.132C801.138 310.132 800.632 310.22 799.62 310.396C798.608 310.572 797.398 310.66 795.99 310.66Z" fill="white"/>
<path d="M965.216 310V266.836H949.97V261.16H986.93V266.836H971.684V310H965.216ZM989.905 310V275.02H996.175V279.376H996.439C997.187 278.056 998.287 276.89 999.739 275.878C1001.19 274.866 1003.24 274.36 1005.88 274.36C1006.63 274.36 1007.31 274.404 1007.92 274.492C1008.54 274.536 1008.85 274.558 1008.85 274.558V280.564C1008.85 280.564 1008.5 280.542 1007.79 280.498C1007.13 280.41 1006.43 280.366 1005.68 280.366C1002.64 280.366 1000.29 281.246 998.617 283.006C996.989 284.722 996.175 287.538 996.175 291.454V310H989.905ZM1027.17 310.66C1023.69 310.66 1020.92 309.582 1018.85 307.426C1016.78 305.27 1015.75 302.278 1015.75 298.45V275.02H1022.02V298.12C1022.02 300.408 1022.64 302.168 1023.87 303.4C1025.14 304.632 1026.82 305.248 1028.88 305.248C1031 305.248 1032.69 304.698 1033.97 303.598C1035.24 302.498 1036.17 301.09 1036.74 299.374C1037.31 297.658 1037.6 295.898 1037.6 294.094V275.02H1043.87V310H1037.6V304.984H1037.2C1036.94 305.512 1036.43 306.238 1035.68 307.162C1034.93 308.042 1033.88 308.856 1032.51 309.604C1031.15 310.308 1029.37 310.66 1027.17 310.66ZM1065.94 310.66C1063.25 310.66 1061.03 310.286 1059.27 309.538C1057.56 308.79 1056.19 307.866 1055.18 306.766C1054.17 305.622 1053.42 304.5 1052.94 303.4C1052.45 302.256 1052.14 301.31 1052.01 300.562C1051.88 299.814 1051.81 299.44 1051.81 299.44H1058.15C1058.15 299.44 1058.22 299.748 1058.35 300.364C1058.52 300.936 1058.85 301.618 1059.34 302.41C1059.87 303.158 1060.66 303.84 1061.71 304.456C1062.81 305.028 1064.27 305.314 1066.07 305.314C1068.14 305.314 1069.74 304.83 1070.89 303.862C1072.03 302.85 1072.6 301.618 1072.6 300.166C1072.6 298.89 1072.14 297.878 1071.22 297.13C1070.34 296.382 1069.06 295.81 1067.39 295.414L1062.64 294.292C1060.88 293.852 1059.23 293.258 1057.69 292.51C1056.15 291.762 1054.89 290.75 1053.93 289.474C1053 288.154 1052.54 286.526 1052.54 284.59C1052.54 281.598 1053.66 279.156 1055.91 277.264C1058.15 275.328 1061.08 274.36 1064.68 274.36C1067.1 274.36 1069.11 274.712 1070.69 275.416C1072.27 276.076 1073.53 276.912 1074.45 277.924C1075.42 278.936 1076.12 279.948 1076.56 280.96C1077.05 281.972 1077.36 282.83 1077.49 283.534C1077.62 284.194 1077.69 284.524 1077.69 284.524H1071.61C1071.61 284.524 1071.55 284.282 1071.42 283.798C1071.28 283.27 1070.98 282.698 1070.49 282.082C1070.05 281.422 1069.37 280.85 1068.45 280.366C1067.52 279.838 1066.29 279.574 1064.75 279.574C1062.64 279.574 1061.1 280.058 1060.13 281.026C1059.16 281.994 1058.68 283.05 1058.68 284.194C1058.68 285.294 1059.12 286.196 1060 286.9C1060.92 287.56 1062.11 288.066 1063.56 288.418L1068.38 289.54C1071.37 290.244 1073.84 291.41 1075.77 293.038C1077.75 294.622 1078.74 296.91 1078.74 299.902C1078.74 301.838 1078.24 303.642 1077.22 305.314C1076.21 306.942 1074.76 308.24 1072.87 309.208C1070.98 310.176 1068.67 310.66 1065.94 310.66ZM1100.85 310.66C1097.25 310.66 1094.52 309.736 1092.67 307.888C1090.87 306.04 1089.96 303.444 1089.96 300.1V280.168H1083.69V275.02H1089.96V266.242H1096.23V275.02H1104.75V280.168H1096.23V300.1C1096.23 301.86 1096.72 303.158 1097.69 303.994C1098.65 304.786 1100.06 305.182 1101.91 305.182C1102.88 305.182 1103.8 305.116 1104.68 304.984C1105.56 304.852 1106 304.786 1106 304.786V310.132C1106 310.132 1105.5 310.22 1104.48 310.396C1103.47 310.572 1102.26 310.66 1100.85 310.66ZM1123.21 310L1111.93 275.02H1118.33L1126.64 301.552L1135.36 275.02H1141.3L1149.94 301.552L1158.32 275.02H1164.73L1153.37 310H1146.64L1138.33 284.194L1130.01 310H1123.21ZM1186.94 310.66C1183.2 310.66 1180.05 309.802 1177.5 308.086C1174.95 306.326 1173.01 304.06 1171.69 301.288C1170.37 298.516 1169.71 295.59 1169.71 292.51C1169.71 289.386 1170.37 286.46 1171.69 283.732C1173.01 280.96 1174.95 278.716 1177.5 277C1180.05 275.24 1183.2 274.36 1186.94 274.36C1190.68 274.36 1193.83 275.24 1196.38 277C1198.93 278.716 1200.87 280.96 1202.19 283.732C1203.51 286.46 1204.17 289.386 1204.17 292.51C1204.17 295.59 1203.51 298.516 1202.19 301.288C1200.87 304.06 1198.93 306.326 1196.38 308.086C1193.83 309.802 1190.68 310.66 1186.94 310.66ZM1186.94 305.182C1189.32 305.182 1191.3 304.588 1192.88 303.4C1194.51 302.168 1195.72 300.584 1196.51 298.648C1197.35 296.712 1197.76 294.666 1197.76 292.51C1197.76 290.31 1197.35 288.264 1196.51 286.372C1195.72 284.436 1194.51 282.874 1192.88 281.686C1191.3 280.454 1189.32 279.838 1186.94 279.838C1184.61 279.838 1182.63 280.454 1181 281.686C1179.37 282.874 1178.14 284.436 1177.3 286.372C1176.51 288.264 1176.12 290.31 1176.12 292.51C1176.12 294.666 1176.51 296.712 1177.3 298.648C1178.14 300.584 1179.37 302.168 1181 303.4C1182.63 304.588 1184.61 305.182 1186.94 305.182ZM1212.72 310V275.02H1218.99V279.376H1219.25C1220 278.056 1221.1 276.89 1222.55 275.878C1224.01 274.866 1226.05 274.36 1228.69 274.36C1229.44 274.36 1230.12 274.404 1230.74 274.492C1231.35 274.536 1231.66 274.558 1231.66 274.558V280.564C1231.66 280.564 1231.31 280.542 1230.61 280.498C1229.95 280.41 1229.24 280.366 1228.49 280.366C1225.46 280.366 1223.1 281.246 1221.43 283.006C1219.8 284.722 1218.99 287.538 1218.99 291.454V310H1212.72ZM1253.42 310.66C1249.81 310.66 1247.08 309.736 1245.23 307.888C1243.43 306.04 1242.53 303.444 1242.53 300.1V280.168H1236.26V275.02H1242.53V266.242H1248.8V275.02H1257.31V280.168H1248.8V300.1C1248.8 301.86 1249.28 303.158 1250.25 303.994C1251.22 304.786 1252.62 305.182 1254.47 305.182C1255.44 305.182 1256.36 305.116 1257.24 304.984C1258.12 304.852 1258.56 304.786 1258.56 304.786V310.132C1258.56 310.132 1258.06 310.22 1257.05 310.396C1256.03 310.572 1254.82 310.66 1253.42 310.66ZM1267.46 310V259.84H1273.73V280.102H1274.12C1274.43 279.574 1274.94 278.848 1275.64 277.924C1276.39 277 1277.44 276.186 1278.81 275.482C1280.17 274.734 1281.89 274.36 1283.96 274.36C1286.51 274.36 1288.69 274.954 1290.49 276.142C1292.29 277.286 1293.66 278.848 1294.58 280.828C1295.55 282.808 1296.03 285.03 1296.03 287.494V310H1289.76V287.89C1289.76 285.558 1289.1 283.622 1287.78 282.082C1286.51 280.542 1284.64 279.772 1282.17 279.772C1280.19 279.772 1278.59 280.278 1277.36 281.29C1276.12 282.258 1275.2 283.556 1274.58 285.184C1274.01 286.768 1273.73 288.462 1273.73 290.266V310H1267.46ZM1304.6 322.87C1303.58 322.87 1302.73 322.826 1302.02 322.738C1301.32 322.65 1300.97 322.606 1300.97 322.606V317.26C1300.97 317.26 1301.32 317.282 1302.02 317.326C1302.77 317.414 1303.56 317.458 1304.4 317.458C1306.99 317.458 1309.11 316.908 1310.73 315.808C1312.41 314.752 1313.81 312.992 1314.96 310.528L1301.43 275.02H1307.96L1318.06 302.344L1328.22 275.02H1334.82L1321.29 310.066C1319.58 314.466 1317.36 317.7 1314.63 319.768C1311.94 321.836 1308.6 322.87 1304.6 322.87Z" fill="white"/>
<g clip-path="url(#clip0_3737_165)">
<path d="M353.213 301H340.787L332 292.213V279.787L340.787 271H353.213L362 279.787V292.213L353.213 301Z" fill="#78F9FF"/>
</g>
<g clip-path="url(#clip1_3737_165)">
<path d="M882.213 301H869.787L861 292.213V279.787L869.787 271H882.213L891 279.787V292.213L882.213 301Z" fill="#78F9FF"/>
</g>
<defs>
<clipPath id="clip0_3737_165">
<rect width="30" height="30" fill="white" transform="matrix(1 0 0 -1 332 301)"/>
</clipPath>
<clipPath id="clip1_3737_165">
<rect width="30" height="30" fill="white" transform="matrix(1 0 0 -1 861 301)"/>
</clipPath>
</defs>
</svg>
